<svg width="128" height="128" viewBox="0 0 128 128" fill="none" xmlns="http://www.w3.org/2000/svg">
<rect width="128" height="128" rx="14.8301" fill="#0E0F11"/>
<path d="M112 102.131C112.887 98.7243 112.492 95.1203 110.858 91.7061C110.858 91.7061 89.954 48.0429 89.9503 48.0429C88.3825 44.7678 85.5872 42.1122 82.1886 40.8037C78.4684 39.3714 74.1675 39.6889 70.602 41.4231C67.9269 42.7239 65.6703 44.8259 64.172 47.3925C66.7501 47.4544 69.0342 48.9255 70.1529 51.2674C72.708 56.606 75.2669 61.948 77.8218 67.2866C79.5871 70.972 81.5537 74.661 82.3587 78.7064C83.1756 82.8024 82.6103 87.0297 80.7018 90.7498C79.4747 93.1382 77.7097 95.2676 75.6347 96.9671C74.8718 97.5901 74.0628 98.1594 73.2189 98.6662C72.8471 98.8871 72.468 99.0961 72.0806 99.2936C73.2537 99.8434 74.3687 100.513 75.406 101.299L87.7551 110.605C90.7671 112.873 94.2317 113.992 97.7468 113.787C100.944 113.609 104.134 112.343 106.724 110.226C109.314 108.108 111.184 105.232 111.993 102.131H112Z" fill="url(#paint0_linear_6_22)"/>
<path d="M64.0015 14.0578C58.0321 14.0578 52.7245 17.4025 50.1464 22.7834L28.1697 68.6802C25.9089 73.407 27.0354 79.0822 30.9801 82.5275C31.0808 82.6126 31.1699 82.6899 31.2473 82.7558C34.7236 85.5973 40.8168 87.386 46.5539 83.0617L51.3465 79.5739C51.0135 79.38 50.6884 79.1596 50.3825 78.908C47.905 76.8792 47.1694 73.5771 48.5515 70.6857L57.846 51.2715C58.0824 50.7798 60.1496 46.8932 60.1496 46.8893C62.2013 42.6001 65.8246 39.1741 70.2572 37.432C74.9647 35.5855 80.4036 35.6977 85.022 37.7572L77.8525 22.7834C75.2744 17.4025 69.9668 14.0578 64.0015 14.0578Z" fill="url(#paint1_linear_6_22)"/>
<path d="M78.9061 81.1602C78.8402 80.2697 78.6934 79.3833 78.4688 78.5162C78.4377 78.4041 78.4144 78.2916 78.3796 78.1795C78.1473 78.4348 77.8917 78.6749 77.6168 78.9031C76.359 79.9368 74.8645 80.4828 73.3044 80.4828C71.8413 80.4828 70.4166 79.9948 69.1932 79.0737L65.7132 76.4489C64.7066 75.6902 63.2975 75.6902 62.2872 76.4489C58.4934 79.1628 54.7033 81.8804 50.9097 84.594C48.6605 86.2043 46.6514 87.7991 43.9493 88.6278C41.0459 89.522 37.887 89.6344 34.9449 88.8483C32.3783 88.1632 30.0092 86.8084 28.0697 85.0005C27.0709 84.0712 26.1883 83.0184 25.445 81.8764C25.0928 81.3344 24.8218 80.7614 24.5663 80.1846C24.2798 79.5343 23.9198 78.7522 23.6759 78.0556L17.1413 91.7054C15.5077 95.1196 15.1128 98.7239 15.9993 102.13C16.8045 105.231 18.6782 108.104 21.268 110.225C23.8578 112.343 27.0438 113.609 30.2453 113.786C33.7603 113.98 37.2173 112.881 40.2368 110.605L52.5858 101.298C55.8842 98.809 59.9451 97.4772 64.0988 97.5005C64.6252 97.5005 65.1516 97.4964 65.6784 97.4191L65.7827 97.4036C71.1832 96.5945 76.0142 92.6887 77.9616 87.5901C78.0079 87.4625 78.0545 87.3386 78.1011 87.2109C78.7821 85.2713 79.0492 83.2004 78.8983 81.1602H78.9061Z" fill="url(#paint2_linear_6_22)"/>
<defs>
<linearGradient id="paint0_linear_6_22" x1="51.8538" y1="18.8812" x2="101.753" y2="112.61" gradientUnits="userSpaceOnUse">
<stop offset="0.25" stop-color="#2CFFC7" stop-opacity="0"/>
<stop offset="1" stop-color="#2CFFC7"/>
</linearGradient>
<linearGradient id="paint1_linear_6_22" x1="26.0018" y1="111.376" x2="74.4342" y2="16.9031" gradientUnits="userSpaceOnUse">
<stop offset="0.25" stop-color="#2CFFC7" stop-opacity="0"/>
<stop offset="1" stop-color="#2CFFC7"/>
</linearGradient>
<linearGradient id="paint2_linear_6_22" x1="98.6684" y1="68.0561" x2="15.798" y2="101.097" gradientUnits="userSpaceOnUse">
<stop offset="0.25" stop-color="#2CFFC7" stop-opacity="0"/>
<stop offset="1" stop-color="#2CFFC7"/>
</linearGradient>
</defs>
</svg>
