<svg width="867" height="271" viewBox="0 0 867 271" fill="none" xmlns="http://www.w3.org/2000/svg">
<path d="M332.304 140L355.856 50.4H385.296L408.848 140H391.44L386.576 120.288H354.576L349.712 140H332.304ZM358.544 104.672H382.608L371.728 61.024H369.424L358.544 104.672ZM453.639 141.792C442.375 141.792 433.415 138.72 426.759 132.576C420.103 126.347 416.775 117.472 416.775 105.952V84.448C416.775 72.928 420.103 64.096 426.759 57.952C433.415 51.7227 442.375 48.608 453.639 48.608C464.903 48.608 473.863 51.7227 480.519 57.952C487.175 64.096 490.503 72.928 490.503 84.448V105.952C490.503 117.472 487.175 126.347 480.519 132.576C473.863 138.72 464.903 141.792 453.639 141.792ZM453.639 126.688C459.954 126.688 464.86 124.853 468.359 121.184C471.858 117.515 473.607 112.608 473.607 106.464V83.936C473.607 77.792 471.858 72.8853 468.359 69.216C464.86 65.5467 459.954 63.712 453.639 63.712C447.41 63.712 442.503 65.5467 438.919 69.216C435.42 72.8853 433.671 77.792 433.671 83.936V106.464C433.671 112.608 435.42 117.515 438.919 121.184C442.503 124.853 447.41 126.688 453.639 126.688ZM459.527 163.04C455.346 163.04 451.932 161.717 449.287 159.072C446.727 156.512 445.447 153.056 445.447 148.704V140H461.831V146.144C461.831 148.704 463.026 149.984 465.415 149.984H472.967V163.04H459.527ZM539.883 141.792C532.544 141.792 526.23 140.469 520.939 137.824C515.734 135.093 511.723 131.253 508.907 126.304C506.176 121.269 504.811 115.339 504.811 108.512V50.4H521.707V109.024C521.707 114.485 523.243 118.795 526.315 121.952C529.472 125.109 533.995 126.688 539.883 126.688C545.771 126.688 550.251 125.109 553.323 121.952C556.48 118.795 558.059 114.485 558.059 109.024V50.4H574.955V108.512C574.955 115.339 573.547 121.269 570.731 126.304C568 131.253 563.99 135.093 558.699 137.824C553.494 140.469 547.222 141.792 539.883 141.792ZM626.139 141.792C614.875 141.792 605.915 138.72 599.259 132.576C592.603 126.347 589.275 117.472 589.275 105.952V84.448C589.275 72.928 592.603 64.096 599.259 57.952C605.915 51.7227 614.875 48.608 626.139 48.608C637.403 48.608 646.363 51.7227 653.019 57.952C659.675 64.096 663.003 72.928 663.003 84.448V105.952C663.003 117.472 659.675 126.347 653.019 132.576C646.363 138.72 637.403 141.792 626.139 141.792ZM626.139 126.688C632.454 126.688 637.36 124.853 640.859 121.184C644.358 117.515 646.107 112.608 646.107 106.464V83.936C646.107 77.792 644.358 72.8853 640.859 69.216C637.36 65.5467 632.454 63.712 626.139 63.712C619.91 63.712 615.003 65.5467 611.419 69.216C607.92 72.8853 606.171 77.792 606.171 83.936V106.464C606.171 112.608 607.92 117.515 611.419 121.184C615.003 124.853 619.91 126.688 626.139 126.688ZM677.823 140V50.4H716.735C722.367 50.4 727.274 51.3813 731.455 53.344C735.636 55.3067 738.879 58.08 741.183 61.664C743.487 65.248 744.639 69.472 744.639 74.336V75.872C744.639 81.248 743.359 85.6 740.799 88.928C738.239 92.256 735.082 94.688 731.327 96.224V98.528C734.74 98.6987 737.386 99.8933 739.263 102.112C741.14 104.245 742.079 107.104 742.079 110.688V140H725.183V113.12C725.183 111.072 724.628 109.408 723.519 108.128C722.495 106.848 720.746 106.208 718.271 106.208H694.719V140H677.823ZM694.719 90.848H714.943C718.954 90.848 722.068 89.7813 724.287 87.648C726.591 85.4293 727.743 82.528 727.743 78.944V77.664C727.743 74.08 726.634 71.2213 724.415 69.088C722.196 66.8693 719.039 65.76 714.943 65.76H694.719V90.848ZM758.698 140V50.4H775.594V140H758.698ZM786.816 140L813.056 94.816L787.072 50.4H806.272L824.064 82.784H826.368L844.16 50.4H863.36L837.376 94.816L863.616 140H844.416L826.368 106.848H824.064L806.016 140H786.816Z" fill="white"/>
<path d="M332.944 225V217.576H338.832V187.624H332.944V180.2H351.376C357.392 180.2 361.957 181.736 365.072 184.808C368.229 187.837 369.808 192.36 369.808 198.376V206.824C369.808 212.84 368.229 217.384 365.072 220.456C361.957 223.485 357.392 225 351.376 225H332.944ZM347.28 217.32H351.504C354.917 217.32 357.413 216.424 358.992 214.632C360.571 212.84 361.36 210.323 361.36 207.08V198.12C361.36 194.835 360.571 192.317 358.992 190.568C357.413 188.776 354.917 187.88 351.504 187.88H347.28V217.32ZM426.129 225V180.2H434.577V225H426.129ZM507.772 225.896C504.7 225.896 501.905 225.213 499.388 223.848C496.913 222.44 494.929 220.413 493.436 217.768C491.985 215.08 491.26 211.816 491.26 207.976V197.224C491.26 191.464 492.881 187.048 496.124 183.976C499.367 180.861 503.761 179.304 509.308 179.304C514.812 179.304 519.057 180.776 522.044 183.72C525.073 186.621 526.588 190.568 526.588 195.56V195.816H518.268V195.304C518.268 193.725 517.927 192.296 517.244 191.016C516.604 189.736 515.623 188.733 514.3 188.008C512.977 187.24 511.313 186.856 509.308 186.856C506.321 186.856 503.975 187.773 502.268 189.608C500.561 191.443 499.708 193.939 499.708 197.096V208.104C499.708 211.219 500.561 213.736 502.268 215.656C503.975 217.533 506.364 218.472 509.436 218.472C512.508 218.472 514.748 217.661 516.156 216.04C517.564 214.419 518.268 212.371 518.268 209.896V209.256H507.644V202.088H526.588V225H518.78V220.712H517.628C517.329 221.437 516.839 222.205 516.156 223.016C515.516 223.827 514.535 224.509 513.212 225.064C511.889 225.619 510.076 225.896 507.772 225.896ZM583.939 225V180.2H592.387V225H583.939ZM660.462 225V187.88H647.406V180.2H681.966V187.88H668.91V225H660.462ZM729.802 225L741.578 180.2H756.298L768.074 225H759.37L756.938 215.144H740.938L738.506 225H729.802ZM742.922 207.336H754.954L749.514 185.512H748.362L742.922 207.336ZM822.716 225V180.2H831.164V217.32H851.644V225H822.716Z" fill="#3F4545"/>
<path d="M260.751 238.956C263.148 229.747 262.08 220.005 257.664 210.776C257.664 210.776 201.157 92.7487 201.147 92.7487C196.909 83.8959 189.353 76.7174 180.166 73.1804C170.11 69.3086 158.484 70.1668 148.846 74.8548C141.615 78.3708 135.515 84.0529 131.465 90.9907C138.434 91.1581 144.608 95.1346 147.632 101.465C154.539 115.896 161.456 130.336 168.362 144.767C173.134 154.729 178.45 164.701 180.626 175.636C182.834 186.708 181.306 198.135 176.147 208.191C172.83 214.647 168.059 220.403 162.45 224.997C160.388 226.681 158.201 228.22 155.92 229.59C154.915 230.187 153.89 230.752 152.843 231.286C156.014 232.772 159.028 234.582 161.832 236.706L195.213 261.862C203.355 267.994 212.72 271.018 222.222 270.464C230.865 269.983 239.488 266.561 246.488 260.837C253.489 255.113 258.543 247.338 260.73 238.956H260.751Z" fill="url(#paint0_linear_2_3)"/>
<path d="M131.004 0.882812C114.868 0.882812 100.521 9.92395 93.552 24.4693L34.1461 148.534C28.035 161.311 31.0801 176.652 41.7432 185.965C42.0153 186.195 42.256 186.404 42.4653 186.582C51.8622 194.263 68.333 199.098 83.8411 187.409L96.7959 177.981C95.896 177.457 95.017 176.861 94.1903 176.181C87.4931 170.697 85.5049 161.771 89.2407 153.955L114.365 101.476C115.004 100.147 120.592 89.641 120.592 89.6305C126.138 78.0361 135.932 68.7752 147.914 64.0663C160.639 59.0748 175.341 59.3782 187.825 64.9452L168.445 24.4693C161.476 9.92395 147.129 0.882812 131.004 0.882812Z" fill="url(#paint1_linear_2_3)"/>
<path d="M171.293 182.269C171.115 179.862 170.718 177.466 170.111 175.122C170.027 174.819 169.964 174.515 169.87 174.212C169.242 174.902 168.551 175.551 167.808 176.168C164.408 178.962 160.368 180.438 156.151 180.438C152.196 180.438 148.345 179.119 145.038 176.629L135.631 169.534C132.91 167.483 129.101 167.483 126.37 169.534C116.115 176.87 105.87 184.216 95.6153 191.551C89.5355 195.904 84.1045 200.215 76.8005 202.455C68.9522 204.872 60.4134 205.176 52.4605 203.051C45.5227 201.199 39.1185 197.537 33.8759 192.65C31.1761 190.138 28.7903 187.292 26.7811 184.205C25.8289 182.74 25.0964 181.191 24.4057 179.632C23.6314 177.874 22.6582 175.76 21.9989 173.877L4.33519 210.774C-0.0807495 220.003 -1.14811 229.746 1.24822 238.954C3.42479 247.336 8.48951 255.101 15.4901 260.835C22.4907 266.559 31.1029 269.981 39.7568 270.462C49.2584 270.985 58.603 268.014 66.7652 261.861L100.146 236.704C109.062 229.976 120.039 226.376 131.267 226.439C132.69 226.439 134.113 226.428 135.537 226.219L135.819 226.177C150.417 223.99 163.476 213.432 168.74 199.65C168.865 199.305 168.991 198.97 169.117 198.625C170.958 193.382 171.68 187.784 171.272 182.269H171.293Z" fill="url(#paint2_linear_2_3)"/>
<defs>
<linearGradient id="paint0_linear_2_3" x1="98.1674" y1="13.9211" x2="233.052" y2="267.283" gradientUnits="userSpaceOnUse">
<stop offset="0.25" stop-color="#2CFFC7" stop-opacity="0"/>
<stop offset="1" stop-color="#2CFFC7"/>
</linearGradient>
<linearGradient id="paint1_linear_2_3" x1="28.2861" y1="263.945" x2="159.205" y2="8.57407" gradientUnits="userSpaceOnUse">
<stop offset="0.25" stop-color="#2CFFC7" stop-opacity="0"/>
<stop offset="1" stop-color="#2CFFC7"/>
</linearGradient>
<linearGradient id="paint2_linear_2_3" x1="224.713" y1="146.847" x2="0.704097" y2="236.16" gradientUnits="userSpaceOnUse">
<stop offset="0.25" stop-color="#2CFFC7" stop-opacity="0"/>
<stop offset="1" stop-color="#2CFFC7"/>
</linearGradient>
</defs>
</svg>
